<svg width="180" height="180" viewBox="0 0 180 180" fill="none" xmlns="http://www.w3.org/2000/svg">
<path fill-rule="evenodd" clip-rule="evenodd" d="M90.0754 180C138.059 180 177.279 142.512 180 95.25H127.243C124.688 113.475 109.021 127.5 90.0767 127.5C71.1319 127.5 55.4655 113.475 52.9102 95.25H0.150703C2.87147 142.512 42.0919 180 90.0754 180ZM127.243 84.75H180C177.279 37.4878 138.059 0 90.0754 0C42.0919 0 2.87147 37.4878 0.150703 84.75H52.9102C55.4656 66.5248 71.1319 52.5 90.0767 52.5C109.021 52.5 124.688 66.5248 127.243 84.75ZM0 90C0 89.8679 0.000285024 89.7358 0.000854492 89.6038V90.3962C0.000285024 90.2642 0 90.1321 0 90ZM90.0766 116.25C104.586 116.25 116.349 104.498 116.349 90C116.349 75.5026 104.586 63.75 90.0766 63.75C75.567 63.75 63.8047 75.5026 63.8047 90C63.8047 104.498 75.567 116.25 90.0766 116.25Z" fill="black"/>
</svg>
