<svg width="260" height="228" viewBox="0 0 260 228" fill="none" xmlns="http://www.w3.org/2000/svg">
<path fill-rule="evenodd" clip-rule="evenodd" d="M150.126 300C230.098 300 295.465 237.52 300 158.75H212.072C207.813 189.125 181.702 212.5 150.128 212.5C118.553 212.5 92.4425 189.125 88.1836 158.75H0.251171C4.78578 237.52 70.1531 300 150.126 300ZM212.072 141.25H300C295.465 62.4796 230.098 0 150.126 0C70.1531 0 4.78578 62.4796 0.251171 141.25H88.1836C92.4426 110.875 118.553 87.5 150.128 87.5C181.702 87.5 207.813 110.875 212.072 141.25ZM0 150C0 149.791 0.000427522 149.582 0.00128174 149.374V150.626C0.000427522 150.418 0 150.209 0 150ZM150.128 193.75C174.31 193.75 193.914 174.163 193.914 150C193.914 125.838 174.31 106.25 150.128 106.25C125.945 106.25 106.341 125.838 106.341 150C106.341 174.163 125.945 193.75 150.128 193.75Z" fill="white"/>
</svg>
